<svg xmlns="http://www.w3.org/2000/svg" viewBox="0 0 1366 833"><defs><style>.cls-1{fill:#32b1c6;}.cls-2{fill:#ff9700;}.cls-3{fill:none;stroke:#1e3435;stroke-linecap:round;stroke-linejoin:round;stroke-width:7px;}.cls-4{fill:#c2f9ff;}.cls-5{fill:#7ebec1;}.cls-6{fill:#046663;}.cls-7{fill:#014949;}.cls-8{fill:#fff;}.cls-9{font-size:46.47px;}.cls-14,.cls-9{font-family:MyriadPro-Regular, Myriad Pro;}.cls-10{letter-spacing:-0.01em;}.cls-11{letter-spacing:-0.04em;}.cls-12{letter-spacing:0em;}.cls-13{letter-spacing:0em;}.cls-14{font-size:37.61px;}.cls-15{letter-spacing:0em;}.cls-16{letter-spacing:-0.01em;}.cls-17{letter-spacing:-0.03em;}.cls-18{letter-spacing:0em;}</style></defs><title>newheader</title><g id="Layer_2" data-name="Layer 2"><g id="bgsky"><path class="cls-1" d="M1366,0V655.48c0,88.61-48.58,160.45-108.5,160.45-45.89,0-85.13-42.14-101-101.68-1.32.08-2.66.12-4,.12-21.41,0-41.36-9.17-58.18-25-13.51,65.84-54.88,113.76-103.82,113.76-51.26,0-94.22-52.58-105.56-123.25-18.88,47.2-53.66,78.87-93.44,78.87-24,0-46.14-11.51-64.09-31C712.18,789.17,672.3,833,625.5,833c-53.66,0-98.22-57.6-106.94-133.27-19.7,40.4-51.81,66.7-88.06,66.7-39.48,0-74-31.2-93-77.82-17,16.29-37.23,25.76-59,25.76-29.25,0-55.8-17.13-75.31-45-16.63,57.07-55,97-99.69,97-48.24,0-89.13-46.57-103.23-110.95-.1-.41-.19-.82-.27-1.24V0Z"/><path class="cls-1" d="M1366,0V655.48c0,88.61-48.58,160.45-108.5,160.45-45.89,0-85.13-42.14-101-101.68-1.32.08-2.66.12-4,.12-21.41,0-41.36-9.17-58.18-25-13.51,65.84-54.88,113.76-103.82,113.76-51.26,0-94.22-52.58-105.56-123.25-18.88,47.2-53.66,78.87-93.44,78.87-24,0-46.14-11.51-64.09-31C712.18,789.17,672.3,833,625.5,833c-53.66,0-98.22-57.6-106.94-133.27-19.7,40.4-51.81,66.7-88.06,66.7-39.48,0-74-31.2-93-77.82-17,16.29-37.23,25.76-59,25.76-29.25,0-55.8-17.13-75.31-45-16.63,57.07-55,97-99.69,97-48.24,0-89.13-46.57-103.23-110.95-.1-.41-.19-.82-.27-1.24V0Z"/><ellipse class="cls-2" cx="170" cy="160.45" rx="127" ry="108.39"/></g><g id="BALLON"><line class="cls-3" x1="512" y1="437.84" x2="512" y2="493.31"/><line class="cls-3" x1="472" y1="437.84" x2="472" y2="493.31"/><path class="cls-4" d="M625,261.17c0-62.7-59.55-113.52-133-113.52S359,198.47,359,261.17c0,22.57,7.72,43.6,21,61.28l55.46,82,13.71,20.27c19,28.11,66.58,28.11,85.6,0l13.71-20.27,55.46-82C617.28,304.77,625,283.74,625,261.17Z"/><path class="cls-5" d="M502,444.93c-19.65,3.41-41.37-3.33-52.8-20.22l-13.71-20.27-55.46-82c-13.31-17.68-21-38.71-21-61.28,0-62.69,59.55-113.52,133-113.52,3.36,0,6.7.11,10,.32-68.78,4.37-123,53.38-123,113.2,0,22.57,7.72,43.6,21,61.28l55.46,82,13.71,20.27C476.79,435.93,488.94,442.68,502,444.93Z"/><rect class="cls-6" x="450.5" y="481.79" width="83" height="61.88" rx="19.52"/><path class="cls-7" d="M480,543.67H470c-10.78,0-19.52-9.57-19.52-21.38V503.17c0-11.81,8.74-21.38,19.52-21.38h10c-10.78,0-19.52,9.57-19.52,21.38v19.12C460.5,534.1,469.24,543.67,480,543.67Z"/></g><g id="CLOUD1"><path class="cls-8" d="M1252.57,149.74c0-.3,0-.59,0-.89,0-22.89-21.74-41.44-48.56-41.44a55.25,55.25,0,0,0-21.93,4.47c-10.33-18.52-32.45-31.32-58.08-31.32-35.51,0-64.29,24.56-64.29,54.86a47.53,47.53,0,0,0,3.46,17.79c-11.47,5.65-19.19,16.22-19.19,28.33h0c0,18.05,17.15,32.68,38.3,32.68h161.4c21.15,0,38.3-14.63,38.3-32.68h0C1282,166.09,1269.44,153.15,1252.57,149.74Z"/></g><g id="CLOUD2"><path class="cls-8" d="M924.64,179.8c0-.37,0-.73,0-1.1,0-28.27-26.85-51.19-60-51.19a68.29,68.29,0,0,0-27.1,5.52c-12.75-22.87-40.08-38.69-71.75-38.69-43.85,0-79.41,30.34-79.41,67.78a58.87,58.87,0,0,0,4.27,22c-14.16,7-23.7,20-23.7,35h0c0,22.3,21.18,40.38,47.31,40.38H913.69c26.13,0,47.31-18.08,47.31-40.38h0C961,200,945.49,184,924.64,179.8Z"/></g><g id="SUN"><text class="cls-9" transform="translate(403.96 245.06)"><tspan class="cls-10">I</tspan><tspan class="cls-11" x="10.87" y="0">’</tspan><tspan x="18.68" y="0">m</tspan><tspan x="0" y="55.76">Shami</tspan><tspan class="cls-12" x="120.72" y="55.76">r</tspan><tspan class="cls-13" x="135.68" y="55.76">a,</tspan></text><text class="cls-14" transform="translate(1072.66 164.72)"><tspan class="cls-15">D</tspan><tspan x="25.2" y="0">e</tspan><tspan class="cls-16" x="44.05" y="0">v</tspan><tspan x="61.76" y="0">eloper</tspan></text><text class="cls-9" transform="translate(714 204.06)"><tspan class="cls-17">F</tspan><tspan x="21" y="0">ull </tspan><tspan class="cls-18" x="78.39" y="0">S</tspan><tspan x="101.15" y="0">tack</tspan></text><text class="cls-9" transform="translate(106.24 164.64)">Hello!</text></g></g></svg>